# xmcd
#
# Track frame offsets:
#	150
#	12879
#	23940
#	36671
#	50577
#	64093
#	78323
#	90455
#	103861
#	119068
#	128604
#	141636
#	157964
#	171817
#	188365
#	203267
#	217571
#	230803
#	239729
#	254009
#	277987
#	291054
#	304933
#	321561
#
# Disc length: 4434 seconds
#
# Revision: 0
# Processed by: cddbd v1.4b41PL2 Copyright (c) Steve Scherf et al.
# Submitted via: audiograbber 1.80
#
DISCID=5f115018
DTITLE=Rob Hoeke R and B group - 48 all time favourites
DYEAR=1900
DGENRE=
TTITLE0=Margio
TTITLE1=Swanee river boogie
TTITLE2=When people talk
TTITLE3=Oh baby please
TTITLE4=What is soul
TTITLE5=Rigmore
TTITLE6=Baby don't go
TTITLE7=P-kick boogie
TTITLE8=Drinking on my bed
TTITLE9=For my little gringo
TTITLE10=Try to realize
TTITLE11=Racing the boogie
TTITLE12=Lying in the grass
TTITLE13=Fallin' of the wagon
TTITLE14=Double cross woman
TTITLE15=Fingerprints
TTITLE16=Down south(part 1)
TTITLE17=Down south(part 2)
TTITLE18=Swinging clock boogie
TTITLE19=Next world war
TTITLE20=Rock around the clock
TTITLE21=Everybody tries
TTITLE22=That's the boogie
TTITLE23=Getting higher
EXTD=
EXTT0=
EXTT1=
EXTT2=
EXTT3=
EXTT4=
EXTT5=
EXTT6=
EXTT7=
EXTT8=
EXTT9=
EXTT10=
EXTT11=
EXTT12=
EXTT13=
EXTT14=
EXTT15=
EXTT16=
EXTT17=
EXTT18=
EXTT19=
EXTT20=
EXTT21=
EXTT22=
EXTT23=
PLAYORDER=
